<?xml version="1.0" encoding="UTF-8" standalone="no"?>
<!DOCTYPE svg PUBLIC "-//W3C//DTD SVG 1.1//EN"
 "http://www.w3.org/Graphics/SVG/1.1/DTD/svg11.dtd">
<!-- Generated by graphviz version 2.38.0 (20140413.2041)
 -->
<!-- Title: snakemake_dag Pages: 1 -->
<svg width="599pt" height="878pt"
 viewBox="0.00 0.00 599.00 878.00" xmlns="http://www.w3.org/2000/svg" xmlns:xlink="http://www.w3.org/1999/xlink">
<g id="graph0" class="graph" transform="scale(1 1) rotate(0) translate(4 874)">
<title>snakemake_dag</title>
<polygon fill="white" stroke="none" points="-4,4 -4,-874 595,-874 595,4 -4,4"/>
<!-- 0 -->
<g id="node1" class="node"><title>0</title>
<path fill="none" stroke="#97d856" stroke-width="2" stroke-dasharray="5,2" d="M235,-36C235,-36 129,-36 129,-36 123,-36 117,-30 117,-24 117,-24 117,-12 117,-12 117,-6 123,-0 129,-0 129,-0 235,-0 235,-0 241,-0 247,-6 247,-12 247,-12 247,-24 247,-24 247,-30 241,-36 235,-36"/>
<text text-anchor="middle" x="182" y="-15.5" font-family="sans" font-size="10.00">resample_surface_data</text>
</g>
<!-- 1 -->
<g id="node2" class="node"><title>1</title>
<path fill="none" stroke="#d87d56" stroke-width="2" stroke-dasharray="5,2" d="M398.5,-108C398.5,-108 313.5,-108 313.5,-108 307.5,-108 301.5,-102 301.5,-96 301.5,-96 301.5,-84 301.5,-84 301.5,-78 307.5,-72 313.5,-72 313.5,-72 398.5,-72 398.5,-72 404.5,-72 410.5,-78 410.5,-84 410.5,-84 410.5,-96 410.5,-96 410.5,-102 404.5,-108 398.5,-108"/>
<text text-anchor="middle" x="356" y="-87.5" font-family="sans" font-size="10.00">volume_to_surface</text>
</g>
<!-- 1&#45;&gt;0 -->
<g id="edge1" class="edge"><title>1&#45;&gt;0</title>
<path fill="none" stroke="grey" stroke-width="2" d="M313.435,-71.8761C289.437,-62.2216 259.272,-50.0865 233.896,-39.8775"/>
<polygon fill="grey" stroke="grey" stroke-width="2" points="235.011,-36.5536 224.427,-36.0683 232.398,-43.0478 235.011,-36.5536"/>
</g>
<!-- 2 -->
<g id="node3" class="node"><title>2</title>
<path fill="none" stroke="#d8a456" stroke-width="2" stroke-dasharray="5,2" d="M102,-196C102,-196 16,-196 16,-196 10,-196 4,-190 4,-184 4,-184 4,-156 4,-156 4,-150 10,-144 16,-144 16,-144 102,-144 102,-144 108,-144 114,-150 114,-156 114,-156 114,-184 114,-184 114,-190 108,-196 102,-196"/>
<text text-anchor="middle" x="59" y="-184" font-family="sans" font-size="10.00">convert_surfaces</text>
<text text-anchor="middle" x="59" y="-173" font-family="sans" font-size="10.00">hemi: lh.sphere</text>
<text text-anchor="middle" x="59" y="-162" font-family="sans" font-size="10.00">subject: S001&#45;C001</text>
<text text-anchor="middle" x="59" y="-151" font-family="sans" font-size="10.00">surf: reg</text>
</g>
<!-- 2&#45;&gt;0 -->
<g id="edge2" class="edge"><title>2&#45;&gt;0</title>
<path fill="none" stroke="grey" stroke-width="2" d="M75.1486,-143.787C88.4543,-123.661 108.278,-95.1074 128,-72 136.461,-62.0864 146.475,-51.896 155.567,-43.1326"/>
<polygon fill="grey" stroke="grey" stroke-width="2" points="158.088,-45.5659 162.934,-36.1442 153.27,-40.4876 158.088,-45.5659"/>
</g>
<!-- 4 -->
<g id="node5" class="node"><title>4</title>
<path fill="none" stroke="#d6d856" stroke-width="2" stroke-dasharray="5,2" d="M261.5,-108C261.5,-108 182.5,-108 182.5,-108 176.5,-108 170.5,-102 170.5,-96 170.5,-96 170.5,-84 170.5,-84 170.5,-78 176.5,-72 182.5,-72 182.5,-72 261.5,-72 261.5,-72 267.5,-72 273.5,-78 273.5,-84 273.5,-84 273.5,-96 273.5,-96 273.5,-102 267.5,-108 261.5,-108"/>
<text text-anchor="middle" x="222" y="-87.5" font-family="sans" font-size="10.00">resample_surface</text>
</g>
<!-- 2&#45;&gt;4 -->
<g id="edge10" class="edge"><title>2&#45;&gt;4</title>
<path fill="none" stroke="grey" stroke-width="2" d="M111.471,-143.891C132.697,-133.734 156.945,-122.131 177.31,-112.385"/>
<polygon fill="grey" stroke="grey" stroke-width="2" points="178.859,-115.524 186.369,-108.05 175.838,-109.21 178.859,-115.524"/>
</g>
<!-- 3 -->
<g id="node4" class="node"><title>3</title>
<path fill="none" stroke="#56d873" stroke-width="2" stroke-dasharray="5,2" d="M171.5,-340C171.5,-340 66.5,-340 66.5,-340 60.5,-340 54.5,-334 54.5,-328 54.5,-328 54.5,-316 54.5,-316 54.5,-310 60.5,-304 66.5,-304 66.5,-304 171.5,-304 171.5,-304 177.5,-304 183.5,-310 183.5,-316 183.5,-316 183.5,-328 183.5,-328 183.5,-334 177.5,-340 171.5,-340"/>
<text text-anchor="middle" x="119" y="-319.5" font-family="sans" font-size="10.00">generate_midthickness</text>
</g>
<!-- 3&#45;&gt;0 -->
<g id="edge3" class="edge"><title>3&#45;&gt;0</title>
<path fill="none" stroke="grey" stroke-width="2" d="M120.64,-303.822C124.807,-263.017 137.194,-157.297 161,-72 163.448,-63.2296 166.848,-53.918 170.201,-45.5868"/>
<polygon fill="grey" stroke="grey" stroke-width="2" points="173.435,-46.925 174.054,-36.3483 166.974,-44.2303 173.435,-46.925"/>
</g>
<!-- 9 -->
<g id="node10" class="node"><title>9</title>
<path fill="none" stroke="#70d856" stroke-width="2" stroke-dasharray="5,2" d="M288,-268C288,-268 182,-268 182,-268 176,-268 170,-262 170,-256 170,-256 170,-244 170,-244 170,-238 176,-232 182,-232 182,-232 288,-232 288,-232 294,-232 300,-238 300,-244 300,-244 300,-256 300,-256 300,-262 294,-268 288,-268"/>
<text text-anchor="middle" x="235" y="-247.5" font-family="sans" font-size="10.00">apply_surf_tkr2scanner</text>
</g>
<!-- 3&#45;&gt;9 -->
<g id="edge15" class="edge"><title>3&#45;&gt;9</title>
<path fill="none" stroke="grey" stroke-width="2" d="M147.377,-303.876C162.544,-294.724 181.405,-283.342 197.739,-273.485"/>
<polygon fill="grey" stroke="grey" stroke-width="2" points="199.761,-276.353 206.514,-268.19 196.144,-270.36 199.761,-276.353"/>
</g>
<!-- 4&#45;&gt;0 -->
<g id="edge4" class="edge"><title>4&#45;&gt;0</title>
<path fill="none" stroke="grey" stroke-width="2" d="M212.112,-71.6966C207.511,-63.6436 201.94,-53.8945 196.847,-44.9824"/>
<polygon fill="grey" stroke="grey" stroke-width="2" points="199.774,-43.0503 191.774,-36.1043 193.696,-46.5233 199.774,-43.0503"/>
</g>
<!-- 5 -->
<g id="node6" class="node"><title>5</title>
<path fill="none" stroke="#567bd8" stroke-width="2" stroke-dasharray="5,2" d="M431,-500C431,-500 379,-500 379,-500 373,-500 367,-494 367,-488 367,-488 367,-476 367,-476 367,-470 373,-464 379,-464 379,-464 431,-464 431,-464 437,-464 443,-470 443,-476 443,-476 443,-488 443,-488 443,-494 437,-500 431,-500"/>
<text text-anchor="middle" x="405" y="-479.5" font-family="sans" font-size="10.00">apply_topup</text>
</g>
<!-- 5&#45;&gt;1 -->
<g id="edge5" class="edge"><title>5&#45;&gt;1</title>
<path fill="none" stroke="grey" stroke-width="2" d="M433.58,-463.98C446.38,-454.894 460.481,-442.571 469,-428 492.937,-387.06 488,-370.425 488,-323 488,-323 488,-323 488,-249 488,-189.684 432.532,-140.876 393.509,-113.878"/>
<polygon fill="grey" stroke="grey" stroke-width="2" points="395.219,-110.81 384.968,-108.132 391.311,-116.618 395.219,-110.81"/>
</g>
<!-- 12 -->
<g id="node13" class="node"><title>12</title>
<path fill="none" stroke="#56a2d8" stroke-width="2" stroke-dasharray="5,2" d="M402,-268C402,-268 330,-268 330,-268 324,-268 318,-262 318,-256 318,-256 318,-244 318,-244 318,-238 324,-232 330,-232 330,-232 402,-232 402,-232 408,-232 414,-238 414,-244 414,-244 414,-256 414,-256 414,-262 408,-268 402,-268"/>
<text text-anchor="middle" x="366" y="-247.5" font-family="sans" font-size="10.00">get_scanner2epi</text>
</g>
<!-- 5&#45;&gt;12 -->
<g id="edge20" class="edge"><title>5&#45;&gt;12</title>
<path fill="none" stroke="grey" stroke-width="2" d="M397.353,-463.636C386.283,-437.454 366.318,-386.027 359,-340 356.488,-324.198 357.95,-319.966 359,-304 359.557,-295.535 360.608,-286.358 361.73,-278.056"/>
<polygon fill="grey" stroke="grey" stroke-width="2" points="365.199,-278.525 363.157,-268.129 358.27,-277.529 365.199,-278.525"/>
</g>
<!-- 16 -->
<g id="node17" class="node"><title>16</title>
<path fill="none" stroke="#d85656" stroke-width="2" stroke-dasharray="5,2" d="M429.5,-340C429.5,-340 380.5,-340 380.5,-340 374.5,-340 368.5,-334 368.5,-328 368.5,-328 368.5,-316 368.5,-316 368.5,-310 374.5,-304 380.5,-304 380.5,-304 429.5,-304 429.5,-304 435.5,-304 441.5,-310 441.5,-316 441.5,-316 441.5,-328 441.5,-328 441.5,-334 435.5,-340 429.5,-340"/>
<text text-anchor="middle" x="405" y="-319.5" font-family="sans" font-size="10.00">inverse_bbr</text>
</g>
<!-- 5&#45;&gt;16 -->
<g id="edge25" class="edge"><title>5&#45;&gt;16</title>
<path fill="none" stroke="grey" stroke-width="2" d="M401.752,-463.888C399.954,-453.542 397.905,-440.063 397,-428 395.27,-404.954 395.27,-399.046 397,-376 397.637,-367.518 398.838,-358.336 400.121,-350.036"/>
<polygon fill="grey" stroke="grey" stroke-width="2" points="403.584,-350.547 401.752,-340.112 396.676,-349.412 403.584,-350.547"/>
</g>
<!-- 20 -->
<g id="node21" class="node"><title>20</title>
<path fill="none" stroke="#56d8a9" stroke-width="2" stroke-dasharray="5,2" d="M448,-420C448,-420 418,-420 418,-420 412,-420 406,-414 406,-408 406,-408 406,-396 406,-396 406,-390 412,-384 418,-384 418,-384 448,-384 448,-384 454,-384 460,-390 460,-396 460,-396 460,-408 460,-408 460,-414 454,-420 448,-420"/>
<text text-anchor="middle" x="433" y="-399.5" font-family="sans" font-size="10.00">fs_bbr</text>
</g>
<!-- 5&#45;&gt;20 -->
<g id="edge30" class="edge"><title>5&#45;&gt;20</title>
<path fill="none" stroke="grey" stroke-width="2" d="M411.214,-463.689C414.767,-453.793 419.3,-441.164 423.31,-429.993"/>
<polygon fill="grey" stroke="grey" stroke-width="2" points="426.719,-430.857 426.803,-420.262 420.13,-428.492 426.719,-430.857"/>
</g>
<!-- 6 -->
<g id="node7" class="node"><title>6</title>
<path fill="none" stroke="#61d856" stroke-width="2" stroke-dasharray="5,2" d="M409.5,-188C409.5,-188 302.5,-188 302.5,-188 296.5,-188 290.5,-182 290.5,-176 290.5,-176 290.5,-164 290.5,-164 290.5,-158 296.5,-152 302.5,-152 302.5,-152 409.5,-152 409.5,-152 415.5,-152 421.5,-158 421.5,-164 421.5,-164 421.5,-176 421.5,-176 421.5,-182 415.5,-188 409.5,-188"/>
<text text-anchor="middle" x="356" y="-167.5" font-family="sans" font-size="10.00">apply_surf_scanner2epi</text>
</g>
<!-- 6&#45;&gt;1 -->
<g id="edge6" class="edge"><title>6&#45;&gt;1</title>
<path fill="none" stroke="grey" stroke-width="2" d="M356,-151.689C356,-141.894 356,-129.422 356,-118.335"/>
<polygon fill="grey" stroke="grey" stroke-width="2" points="359.5,-118.262 356,-108.262 352.5,-118.262 359.5,-118.262"/>
</g>
<!-- 7 -->
<g id="node8" class="node"><title>7</title>
<path fill="none" stroke="#d8a456" stroke-width="2" stroke-dasharray="5,2" d="M98,-428C98,-428 12,-428 12,-428 6,-428 0,-422 0,-416 0,-416 0,-388 0,-388 0,-382 6,-376 12,-376 12,-376 98,-376 98,-376 104,-376 110,-382 110,-388 110,-388 110,-416 110,-416 110,-422 104,-428 98,-428"/>
<text text-anchor="middle" x="55" y="-416" font-family="sans" font-size="10.00">convert_surfaces</text>
<text text-anchor="middle" x="55" y="-405" font-family="sans" font-size="10.00">hemi: lh</text>
<text text-anchor="middle" x="55" y="-394" font-family="sans" font-size="10.00">subject: S001&#45;C001</text>
<text text-anchor="middle" x="55" y="-383" font-family="sans" font-size="10.00">surf: white</text>
</g>
<!-- 7&#45;&gt;3 -->
<g id="edge7" class="edge"><title>7&#45;&gt;3</title>
<path fill="none" stroke="grey" stroke-width="2" d="M75.6023,-375.891C82.8763,-367.026 91.0542,-357.059 98.3335,-348.187"/>
<polygon fill="grey" stroke="grey" stroke-width="2" points="101.077,-350.362 104.714,-340.411 95.6654,-345.921 101.077,-350.362"/>
</g>
<!-- 8 -->
<g id="node9" class="node"><title>8</title>
<path fill="none" stroke="#d8a456" stroke-width="2" stroke-dasharray="5,2" d="M226,-428C226,-428 140,-428 140,-428 134,-428 128,-422 128,-416 128,-416 128,-388 128,-388 128,-382 134,-376 140,-376 140,-376 226,-376 226,-376 232,-376 238,-382 238,-388 238,-388 238,-416 238,-416 238,-422 232,-428 226,-428"/>
<text text-anchor="middle" x="183" y="-416" font-family="sans" font-size="10.00">convert_surfaces</text>
<text text-anchor="middle" x="183" y="-405" font-family="sans" font-size="10.00">hemi: lh</text>
<text text-anchor="middle" x="183" y="-394" font-family="sans" font-size="10.00">subject: S001&#45;C001</text>
<text text-anchor="middle" x="183" y="-383" font-family="sans" font-size="10.00">surf: pial</text>
</g>
<!-- 8&#45;&gt;3 -->
<g id="edge8" class="edge"><title>8&#45;&gt;3</title>
<path fill="none" stroke="grey" stroke-width="2" d="M162.398,-375.891C155.124,-367.026 146.946,-357.059 139.666,-348.187"/>
<polygon fill="grey" stroke="grey" stroke-width="2" points="142.335,-345.921 133.286,-340.411 136.923,-350.362 142.335,-345.921"/>
</g>
<!-- 9&#45;&gt;4 -->
<g id="edge9" class="edge"><title>9&#45;&gt;4</title>
<path fill="none" stroke="grey" stroke-width="2" d="M233.584,-231.79C231.337,-204.485 226.936,-150.994 224.253,-118.38"/>
<polygon fill="grey" stroke="grey" stroke-width="2" points="227.723,-117.868 223.414,-108.188 220.746,-118.442 227.723,-117.868"/>
</g>
<!-- 9&#45;&gt;6 -->
<g id="edge13" class="edge"><title>9&#45;&gt;6</title>
<path fill="none" stroke="grey" stroke-width="2" d="M261.554,-231.883C278.97,-220.656 301.936,-205.851 320.859,-193.653"/>
<polygon fill="grey" stroke="grey" stroke-width="2" points="322.999,-196.437 329.508,-188.078 319.207,-190.554 322.999,-196.437"/>
</g>
<!-- 10 -->
<g id="node11" class="node"><title>10</title>
<path fill="none" stroke="#56d88a" stroke-width="2" stroke-dasharray="5,2" d="M385.5,-572C385.5,-572 340.5,-572 340.5,-572 334.5,-572 328.5,-566 328.5,-560 328.5,-560 328.5,-548 328.5,-548 328.5,-542 334.5,-536 340.5,-536 340.5,-536 385.5,-536 385.5,-536 391.5,-536 397.5,-542 397.5,-548 397.5,-548 397.5,-560 397.5,-560 397.5,-566 391.5,-572 385.5,-572"/>
<text text-anchor="middle" x="363" y="-551.5" font-family="sans" font-size="10.00">mc_tseries</text>
</g>
<!-- 10&#45;&gt;5 -->
<g id="edge11" class="edge"><title>10&#45;&gt;5</title>
<path fill="none" stroke="grey" stroke-width="2" d="M373.382,-535.697C378.265,-527.559 384.187,-517.689 389.579,-508.701"/>
<polygon fill="grey" stroke="grey" stroke-width="2" points="392.594,-510.48 394.737,-500.104 386.591,-506.879 392.594,-510.48"/>
</g>
<!-- 11 -->
<g id="node12" class="node"><title>11</title>
<path fill="none" stroke="#afd856" stroke-width="2" stroke-dasharray="5,2" d="M468.5,-572C468.5,-572 427.5,-572 427.5,-572 421.5,-572 415.5,-566 415.5,-560 415.5,-560 415.5,-548 415.5,-548 415.5,-542 421.5,-536 427.5,-536 427.5,-536 468.5,-536 468.5,-536 474.5,-536 480.5,-542 480.5,-548 480.5,-548 480.5,-560 480.5,-560 480.5,-566 474.5,-572 468.5,-572"/>
<text text-anchor="middle" x="448" y="-551.5" font-family="sans" font-size="10.00">run_topup</text>
</g>
<!-- 11&#45;&gt;5 -->
<g id="edge12" class="edge"><title>11&#45;&gt;5</title>
<path fill="none" stroke="grey" stroke-width="2" d="M437.371,-535.697C432.372,-527.559 426.309,-517.689 420.788,-508.701"/>
<polygon fill="grey" stroke="grey" stroke-width="2" points="423.723,-506.793 415.507,-500.104 417.759,-510.457 423.723,-506.793"/>
</g>
<!-- 12&#45;&gt;6 -->
<g id="edge14" class="edge"><title>12&#45;&gt;6</title>
<path fill="none" stroke="grey" stroke-width="2" d="M363.781,-231.689C362.525,-221.894 360.926,-209.422 359.504,-198.335"/>
<polygon fill="grey" stroke="grey" stroke-width="2" points="362.956,-197.736 358.213,-188.262 356.013,-198.626 362.956,-197.736"/>
</g>
<!-- 13 -->
<g id="node14" class="node"><title>13</title>
<path fill="none" stroke="#5692d8" stroke-width="2" stroke-dasharray="5,2" d="M300,-340C300,-340 214,-340 214,-340 208,-340 202,-334 202,-328 202,-328 202,-316 202,-316 202,-310 208,-304 214,-304 214,-304 300,-304 300,-304 306,-304 312,-310 312,-316 312,-316 312,-328 312,-328 312,-334 306,-340 300,-340"/>
<text text-anchor="middle" x="257" y="-325" font-family="sans" font-size="10.00">get_tkr2scanner</text>
<text text-anchor="middle" x="257" y="-314" font-family="sans" font-size="10.00">subject: S001&#45;C001</text>
</g>
<!-- 13&#45;&gt;9 -->
<g id="edge16" class="edge"><title>13&#45;&gt;9</title>
<path fill="none" stroke="grey" stroke-width="2" d="M251.562,-303.697C249.111,-295.898 246.16,-286.509 243.432,-277.829"/>
<polygon fill="grey" stroke="grey" stroke-width="2" points="246.713,-276.595 240.376,-268.104 240.035,-278.694 246.713,-276.595"/>
</g>
<!-- 14 -->
<g id="node15" class="node"><title>14</title>
<path fill="none" stroke="#d8b456" stroke-width="2" stroke-dasharray="5,2" d="M415.5,-716C415.5,-716 310.5,-716 310.5,-716 304.5,-716 298.5,-710 298.5,-704 298.5,-704 298.5,-692 298.5,-692 298.5,-686 304.5,-680 310.5,-680 310.5,-680 415.5,-680 415.5,-680 421.5,-680 427.5,-686 427.5,-692 427.5,-692 427.5,-704 427.5,-704 427.5,-710 421.5,-716 415.5,-716"/>
<text text-anchor="middle" x="363" y="-695.5" font-family="sans" font-size="10.00">apply_gradient_unwarp</text>
</g>
<!-- 14&#45;&gt;10 -->
<g id="edge17" class="edge"><title>14&#45;&gt;10</title>
<path fill="none" stroke="grey" stroke-width="2" d="M363,-679.871C363,-655.67 363,-611.211 363,-582.393"/>
<polygon fill="grey" stroke="grey" stroke-width="2" points="366.5,-582.189 363,-572.189 359.5,-582.189 366.5,-582.189"/>
</g>
<!-- 15 -->
<g id="node16" class="node"><title>15</title>
<path fill="none" stroke="#88d856" stroke-width="2" stroke-dasharray="5,2" d="M471.5,-644C471.5,-644 424.5,-644 424.5,-644 418.5,-644 412.5,-638 412.5,-632 412.5,-632 412.5,-620 412.5,-620 412.5,-614 418.5,-608 424.5,-608 424.5,-608 471.5,-608 471.5,-608 477.5,-608 483.5,-614 483.5,-620 483.5,-620 483.5,-632 483.5,-632 483.5,-638 477.5,-644 471.5,-644"/>
<text text-anchor="middle" x="448" y="-623.5" font-family="sans" font-size="10.00">prep_topup</text>
</g>
<!-- 14&#45;&gt;15 -->
<g id="edge23" class="edge"><title>14&#45;&gt;15</title>
<path fill="none" stroke="grey" stroke-width="2" d="M384.011,-679.697C394.716,-670.881 407.89,-660.032 419.496,-650.474"/>
<polygon fill="grey" stroke="grey" stroke-width="2" points="421.736,-653.163 427.23,-644.104 417.286,-647.76 421.736,-653.163"/>
</g>
<!-- 15&#45;&gt;11 -->
<g id="edge18" class="edge"><title>15&#45;&gt;11</title>
<path fill="none" stroke="grey" stroke-width="2" d="M448,-607.697C448,-599.983 448,-590.712 448,-582.112"/>
<polygon fill="grey" stroke="grey" stroke-width="2" points="451.5,-582.104 448,-572.104 444.5,-582.104 451.5,-582.104"/>
</g>
<!-- 16&#45;&gt;12 -->
<g id="edge19" class="edge"><title>16&#45;&gt;12</title>
<path fill="none" stroke="grey" stroke-width="2" d="M395.36,-303.697C390.873,-295.644 385.441,-285.894 380.476,-276.982"/>
<polygon fill="grey" stroke="grey" stroke-width="2" points="383.454,-275.137 375.53,-268.104 377.339,-278.544 383.454,-275.137"/>
</g>
<!-- 17 -->
<g id="node18" class="node"><title>17</title>
<path fill="none" stroke="#bed856" stroke-width="2" stroke-dasharray="5,2" d="M418,-870C418,-870 332,-870 332,-870 326,-870 320,-864 320,-858 320,-858 320,-841 320,-841 320,-835 326,-829 332,-829 332,-829 418,-829 418,-829 424,-829 430,-835 430,-841 430,-841 430,-858 430,-858 430,-864 424,-870 418,-870"/>
<text text-anchor="middle" x="375" y="-858" font-family="sans" font-size="10.00">slicetimer</text>
<text text-anchor="middle" x="375" y="-847" font-family="sans" font-size="10.00">scan: rest</text>
<text text-anchor="middle" x="375" y="-836" font-family="sans" font-size="10.00">subject: S001&#45;C001</text>
</g>
<!-- 17&#45;&gt;14 -->
<g id="edge21" class="edge"><title>17&#45;&gt;14</title>
<path fill="none" stroke="grey" stroke-width="2" d="M366.509,-828.875C362.451,-818.436 358.04,-805.256 356,-793 352.277,-770.631 354.636,-744.935 357.583,-726.07"/>
<polygon fill="grey" stroke="grey" stroke-width="2" points="361.053,-726.54 359.295,-716.092 354.154,-725.356 361.053,-726.54"/>
</g>
<!-- 18 -->
<g id="node19" class="node"><title>18</title>
<path fill="none" stroke="#566bd8" stroke-width="2" stroke-dasharray="5,2" d="M451,-790.5C451,-790.5 377,-790.5 377,-790.5 371,-790.5 365,-784.5 365,-778.5 365,-778.5 365,-766.5 365,-766.5 365,-760.5 371,-754.5 377,-754.5 377,-754.5 451,-754.5 451,-754.5 457,-754.5 463,-760.5 463,-766.5 463,-766.5 463,-778.5 463,-778.5 463,-784.5 457,-790.5 451,-790.5"/>
<text text-anchor="middle" x="414" y="-770" font-family="sans" font-size="10.00">gradient_unwarp</text>
</g>
<!-- 17&#45;&gt;18 -->
<g id="edge27" class="edge"><title>17&#45;&gt;18</title>
<path fill="none" stroke="grey" stroke-width="2" d="M385.247,-828.795C389.851,-819.941 395.351,-809.364 400.301,-799.843"/>
<polygon fill="grey" stroke="grey" stroke-width="2" points="403.508,-801.264 405.016,-790.777 397.297,-798.035 403.508,-801.264"/>
</g>
<!-- 18&#45;&gt;14 -->
<g id="edge22" class="edge"><title>18&#45;&gt;14</title>
<path fill="none" stroke="grey" stroke-width="2" d="M401.914,-754.319C395.626,-745.38 387.817,-734.279 380.848,-724.372"/>
<polygon fill="grey" stroke="grey" stroke-width="2" points="383.616,-722.223 375,-716.058 377.89,-726.251 383.616,-722.223"/>
</g>
<!-- 19 -->
<g id="node20" class="node"><title>19</title>
<path fill="none" stroke="#d8b456" stroke-width="2" stroke-dasharray="5,2" d="M562.5,-716C562.5,-716 457.5,-716 457.5,-716 451.5,-716 445.5,-710 445.5,-704 445.5,-704 445.5,-692 445.5,-692 445.5,-686 451.5,-680 457.5,-680 457.5,-680 562.5,-680 562.5,-680 568.5,-680 574.5,-686 574.5,-692 574.5,-692 574.5,-704 574.5,-704 574.5,-710 568.5,-716 562.5,-716"/>
<text text-anchor="middle" x="510" y="-695.5" font-family="sans" font-size="10.00">apply_gradient_unwarp</text>
</g>
<!-- 18&#45;&gt;19 -->
<g id="edge29" class="edge"><title>18&#45;&gt;19</title>
<path fill="none" stroke="grey" stroke-width="2" d="M436.751,-754.319C449.424,-744.748 465.379,-732.698 479.161,-722.29"/>
<polygon fill="grey" stroke="grey" stroke-width="2" points="481.542,-724.878 487.413,-716.058 477.323,-719.292 481.542,-724.878"/>
</g>
<!-- 19&#45;&gt;15 -->
<g id="edge24" class="edge"><title>19&#45;&gt;15</title>
<path fill="none" stroke="grey" stroke-width="2" d="M494.674,-679.697C487.241,-671.305 478.177,-661.07 470.02,-651.861"/>
<polygon fill="grey" stroke="grey" stroke-width="2" points="472.4,-649.27 463.15,-644.104 467.16,-653.911 472.4,-649.27"/>
</g>
<!-- 20&#45;&gt;16 -->
<g id="edge26" class="edge"><title>20&#45;&gt;16</title>
<path fill="none" stroke="grey" stroke-width="2" d="M426.786,-383.689C423.233,-373.793 418.7,-361.164 414.69,-349.993"/>
<polygon fill="grey" stroke="grey" stroke-width="2" points="417.87,-348.492 411.197,-340.262 411.281,-350.857 417.87,-348.492"/>
</g>
<!-- 21 -->
<g id="node22" class="node"><title>21</title>
<path fill="none" stroke="#bed856" stroke-width="2" stroke-dasharray="5,2" d="M579,-793C579,-793 493,-793 493,-793 487,-793 481,-787 481,-781 481,-781 481,-764 481,-764 481,-758 487,-752 493,-752 493,-752 579,-752 579,-752 585,-752 591,-758 591,-764 591,-764 591,-781 591,-781 591,-787 585,-793 579,-793"/>
<text text-anchor="middle" x="536" y="-781" font-family="sans" font-size="10.00">slicetimer</text>
<text text-anchor="middle" x="536" y="-770" font-family="sans" font-size="10.00">scan: topup</text>
<text text-anchor="middle" x="536" y="-759" font-family="sans" font-size="10.00">subject: S001&#45;C001</text>
</g>
<!-- 21&#45;&gt;19 -->
<g id="edge28" class="edge"><title>21&#45;&gt;19</title>
<path fill="none" stroke="grey" stroke-width="2" d="M528.895,-751.689C526.042,-743.734 522.709,-734.438 519.643,-725.888"/>
<polygon fill="grey" stroke="grey" stroke-width="2" points="522.881,-724.551 516.211,-716.319 516.292,-726.914 522.881,-724.551"/>
</g>
</g>
</svg>
